:SAMPLES-PER-SECOND 30
:FULLY-SPECIFIED
:DEGREES
155
root  -74.4709 41.6524 -10.6331 -97.5037 -89.2146 96.6382
RightUpLeg  -3.7011 -6.61057 -2.2651
RightLeg  3.81483 -6.39374 3.89817
RightFoot  1.07546 0.371227 -3.34202
RightToes  -5.8209e-011 0 -3.6325e-017
Spine  5.82346 -0.833213 3.59787
Spine1  -1.96539 0.091173 -4.95114
HEad  -7.41215 2.79375 -1.09098
LeftShoulder1  0.460742 -0.638825 -2.98921
LeftArm  -13.2392 16.8148 0.0117843
LeftForeArm  18.4937 -15.5843 -3.28043
LeftHand  -0.244104 0.0205437 5.32207
RightShoulder  0.748173 0.694382 10.6467
RightArm  -25.4668 -9.10775 -5.83562
RightForeArm  -16.5034 5.81414 2.41953
RightHand  -1.63968 5.3889 -17.7982
LeftUpLeg  -3.56442 4.66607 2.75286
LeftLeg  3.27862 8.45866 -3.75248
LeftFoot  -0.445202 -0.0170804 0.207255
LeftToes  -6.09394e-011 -3.18376e-011 -2.71738e-012
156
root  -74.5363 41.6604 -10.5745 -74.031 -89.2395 73.1659
RightUpLeg  -3.44931 -6.68805 -2.4009
RightLeg  3.65159 -6.54146 3.96736
RightFoot  0.903068 0.34448 -3.1514
RightToes  -5.8209e-011 0 -3.6325e-017
Spine  5.89426 -1.05539 3.08001
Spine1  -1.8269 -0.207775 -4.57684
HEad  -7.37166 2.71216 -1.04917
LeftShoulder1  0.457946 -1.07299 -1.71131
LeftArm  -12.5331 14.9526 -0.201614
LeftForeArm  17.811 -13.7228 -3.55846
LeftHand  -0.244104 0.0205437 5.32207
RightShoulder  0.637482 0.259593 9.58628
RightArm  -23.0895 -7.30852 -6.75059
RightForeArm  -20.8337 5.56899 3.55021
RightHand  -2.0268 6.61023 -19.7424
LeftUpLeg  -3.35761 4.54721 2.64993
LeftLeg  2.94275 8.23383 -3.73838
LeftFoot  -0.388596 -0.0245983 0.280865
LeftToes  -6.09394e-011 -3.18376e-011 -2.71738e-012
157
root  -74.5954 41.6622 -10.5196 -63.1693 -89.2896 62.2238
RightUpLeg  -3.2084 -6.67479 -2.41201
RightLeg  3.58999 -6.64076 3.95897
RightFoot  0.773192 0.325614 -3.01631
RightToes  -5.8209e-011 0 -3.6325e-017
Spine  6.09595 -1.16907 2.22014
Spine1  -1.70161 -0.549838 -3.35281
HEad  -7.393 2.87143 -1.35705
LeftShoulder1  0.483013 -1.30451 -1.77415
LeftArm  -12.6865 13.4206 -0.524076
LeftForeArm  18.1549 -12.7018 -3.67318
LeftHand  -0.244104 0.0205437 5.32207
RightShoulder  0.556089 0.0818832 8.01425
RightArm  -21.2533 -5.82199 -6.195
RightForeArm  -22.1012 5.20879 4.3457
RightHand  -2.1813 7.31267 -20.0433
LeftUpLeg  -3.2563 4.51489 2.60883
LeftLeg  3.0414 8.19592 -3.64838
LeftFoot  -0.341528 -0.0549598 0.592526
LeftToes  -6.09394e-011 -3.18376e-011 -2.71738e-012
158
root  -74.6501 41.6637 -10.4731 -68.3093 -89.3965 67.3219
RightUpLeg  -3.1007 -6.62495 -2.37564
RightLeg  3.60484 -6.63799 3.90465
RightFoot  0.752495 0.31597 -2.93185
RightToes  -5.8209e-011 0 -3.6325e-017
Spine  6.41378 -1.39164 1.74601
Spine1  -1.89328 -0.821162 -3.17776
HEad  -7.40391 3.40197 -0.939217
LeftShoulder1  0.434322 -1.26309 -0.721073
LeftArm  -13.0462 12.6882 -1.89375
LeftForeArm  19.5411 -12.4562 -3.64607
LeftHand  -0.244104 0.0205437 5.32207
RightShoulder  0.673906 0.737632 8.45241
RightArm  -20.7971 -4.93426 -6.13633
RightForeArm  -18.6372 5.31199 4.43155
RightHand  -1.80065 6.36749 -17.9527
LeftUpLeg  -3.21015 4.54008 2.62191
LeftLeg  3.23945 8.30817 -3.60622
LeftFoot  -0.371213 -0.0699245 0.751969
LeftToes  -6.09394e-011 -3.18376e-011 -2.71738e-012
159
root  -74.709 41.6681 -10.4224 -99.1758 -89.4322 98.2942
RightUpLeg  -3.15964 -6.63914 -2.40508
RightLeg  3.59797 -6.34899 3.90244
RightFoot  0.769922 0.313358 -2.90185
RightToes  -5.8209e-011 0 -3.6325e-017
Spine  6.36383 -1.35605 1.32227
Spine1  -1.73066 -0.87757 -2.68468
HEad  -7.71518 3.87151 -0.928202
LeftShoulder1  0.505045 -1.5826 -1.65246
LeftArm  -13.0198 11.528 -1.82212
LeftForeArm  20.2735 -11.7632 -3.74164
LeftHand  -0.244104 0.0205437 5.32207
RightShoulder  0.710619 0.976346 8.41136
RightArm  -20.3373 -4.02137 -5.33095
RightForeArm  -16.1208 5.19897 4.54711
RightHand  -1.61195 5.93882 -16.7221
LeftUpLeg  -3.17828 4.5507 2.59355
LeftLeg  3.18917 8.61409 -3.64055
LeftFoot  -0.405573 -0.0762286 0.819848
LeftToes  -6.09394e-011 -3.18376e-011 -2.71738e-012
160
root  -74.7742 41.6747 -10.3642 -139.54 -89.1436 138.874
RightUpLeg  -3.28134 -6.6869 -2.47435
RightLeg  3.47977 -5.78532 3.95846
RightFoot  0.790302 0.309189 -2.85583
RightToes  -5.8209e-011 0 -3.6325e-017
Spine  6.21287 -1.2248 1.30582
Spine1  -1.60803 -0.711863 -2.85509
HEad  -8.15337 4.15519 -0.704095
LeftShoulder1  0.559612 -1.82403 -2.30794
LeftArm  -12.7308 10.4125 -1.92642
LeftForeArm  20.4317 -10.6921 -3.9424
LeftHand  -0.244104 0.0205437 5.32207
RightShoulder  0.772558 1.13848 9.28797
RightArm  -19.5639 -2.81855 -5.0205
RightForeArm  -16.3654 4.33488 4.81928
RightHand  -1.63404 6.098 -16.7116
LeftUpLeg  -3.16779 4.63351 2.56673
LeftLeg  3.00837 9.07654 -3.781
LeftFoot  -0.380811 -0.0967982 1.01763
LeftToes  -6.09394e-011 -3.18376e-011 -2.71738e-012
161
root  -74.8392 41.6829 -10.3122 -158.634 -88.6457 158.186
RightUpLeg  -3.33908 -6.63277 -2.43933
RightLeg  3.20894 -5.2544 3.99185
RightFoot  0.894495 0.300158 -2.74157
RightToes  -5.8209e-011 0 -3.6325e-017
Spine  6.25067 -1.04609 1.45463
Spine1  -1.70799 -0.469042 -3.19037
HEad  -8.5998 4.25834 -0.465388
LeftShoulder1  0.581417 -1.8455 -2.71801
LeftArm  -12.2111 9.40767 -2.19018
LeftForeArm  20.4358 -9.38064 -4.19784
LeftHand  -0.244104 0.0205437 5.32207
RightShoulder  0.820766 1.15844 10.3622
RightArm  -18.4788 -1.89391 -5.02894
RightForeArm  -16.1388 3.48459 5.13782
RightHand  -1.60251 6.15886 -16.3129
LeftUpLeg  -3.18514 4.84924 2.66171
LeftLeg  2.93919 9.50375 -3.97234
LeftFoot  -0.385878 -0.115957 1.23681
LeftToes  -6.09394e-011 -3.18376e-011 -2.71738e-012
162
root  -74.9006 41.6924 -10.2749 -167.897 -88.2087 167.641
RightUpLeg  -3.35518 -6.45716 -2.28245
RightLeg  2.88689 -4.95764 3.95728
RightFoot  1.06727 0.290683 -2.62368
RightToes  -5.8209e-011 0 -3.6325e-017
Spine  6.43289 -0.883688 1.57771
Spine1  -1.92055 -0.271786 -3.38137
HEad  -8.95355 4.34027 -0.336978
LeftShoulder1  0.60702 -1.90167 -3.1213
LeftArm  -11.7265 8.95007 -2.20984
LeftForeArm  20.3363 -8.31726 -4.35033
LeftHand  -0.244104 0.0205437 5.32207
RightShoulder  0.828544 1.02654 11.1193
RightArm  -17.2848 -1.26916 -5.1329
RightForeArm  -14.2084 2.62783 5.36138
RightHand  -1.47386 5.98003 -15.2726
LeftUpLeg  -3.21989 5.02702 2.80972
LeftLeg  2.93035 9.83768 -4.0642
LeftFoot  -0.474836 -0.121084 1.29903
LeftToes  -6.09394e-011 -3.18376e-011 -2.71738e-012
163
root  -74.9611 41.7 -10.2439 -171.185 -87.8901 171.134
RightUpLeg  -3.45443 -6.32206 -2.18622
RightLeg  2.72973 -4.77488 3.89323
RightFoot  1.14565 0.285881 -2.58013
RightToes  -5.8209e-011 0 -3.6325e-017
Spine  6.53209 -0.773989 1.44735
Spine1  -2.03144 -0.192765 -3.22679
HEad  -9.13986 4.55626 -0.350791
LeftShoulder1  0.655401 -2.12326 -3.59808
LeftArm  -11.7824 9.34385 -1.8856
LeftForeArm  19.7849 -7.84815 -4.24662
LeftHand  -0.244104 0.0205437 5.32207
RightShoulder  0.789777 0.77157 11.3199
RightArm  -16.1877 -0.712527 -5.1278
RightForeArm  -13.0832 1.73247 5.59658
RightHand  -1.39745 5.71321 -14.8414
LeftUpLeg  -3.26036 4.97188 2.79663
LeftLeg  2.81337 10.2061 -4.00187
LeftFoot  -0.544271 -0.119956 1.2918
LeftToes  -6.09394e-011 -3.18376e-011 -2.71738e-012
164
root  -75.0211 41.704 -10.2096 -169.975 -87.6844 170.129
RightUpLeg  -3.64541 -6.34449 -2.27153
RightLeg  2.80874 -4.55467 3.85712
RightFoot  1.06743 0.283815 -2.57907
RightToes  -5.8209e-011 0 -3.6325e-017
Spine  6.54859 -0.756474 0.971348
Spine1  -2.05596 -0.271677 -2.74333
HEad  -9.29675 4.89174 -0.380794
LeftShoulder1  0.669239 -2.15119 -3.80945
LeftArm  -12.0349 9.96328 -1.61484
LeftForeArm  18.6514 -7.1958 -4.04134
LeftHand  -0.244104 0.0205437 5.32207
RightShoulder  0.734929 0.508616 11.1429
RightArm  -15.0688 0.024108 -5.0811
RightForeArm  -14.5811 0.64911 6.01818
RightHand  -1.42455 5.47938 -15.4279
LeftUpLeg  -3.28278 4.75076 2.59023
LeftLeg  2.60466 10.6139 -3.89655
LeftFoot  -0.532463 -0.120598 1.32976
LeftToes  -6.09394e-011 -3.18376e-011 -2.71738e-012
165
root  -75.0772 41.7053 -10.1727 -168.311 -87.5625 168.618
RightUpLeg  -3.79721 -6.43439 -2.41419
RightLeg  2.94142 -4.33587 3.86346
RightFoot  0.957721 0.280061 -2.54993
RightToes  -5.8209e-011 0 -3.6325e-017
Spine  6.60878 -0.796208 0.437766
Spine1  -2.10464 -0.424381 -2.18261
HEad  -9.35373 5.218 -0.370079
LeftShoulder1  0.63113 -1.83215 -3.7923
LeftArm  -12.2017 10.3872 -1.48852
LeftForeArm  17.5977 -6.40176 -3.86433
LeftHand  -0.244104 0.0205437 5.32207
RightShoulder  0.678388 0.275994 10.7373
RightArm  -13.9998 0.88525 -5.03561
RightForeArm  -17.1479 -0.668007 6.51445
RightHand  -1.49881 5.41754 -16.2939
LeftUpLeg  -3.28414 4.59583 2.40501
LeftLeg  2.46696 10.8892 -3.85576
LeftFoot  -0.551379 -0.11905 1.34125
LeftToes  -6.09394e-011 -3.18376e-011 -2.71738e-012
166
root  -75.128 41.7053 -10.1389 -169.277 -87.482 169.693
RightUpLeg  -3.84164 -6.4446 -2.4401
RightLeg  2.94168 -4.20918 3.88361
RightFoot  0.919407 0.275441 -2.50235
RightToes  -5.8209e-011 0 -3.6325e-017
Spine  6.67532 -0.822488 0.356145
Spine1  -2.20551 -0.469334 -2.10706
HEad  -9.02057 5.29684 -0.12623
LeftShoulder1  0.596551 -1.60333 -3.62498
LeftArm  -12.3253 10.1527 -1.36193
LeftForeArm  16.865 -4.52617 -3.65092
LeftHand  -0.244104 0.0205437 5.32207
RightShoulder  0.645903 0.143465 10.4672
RightArm  -13.1857 1.62066 -5.15882
RightForeArm  -18.8343 -2.19231 6.86324
RightHand  -1.59547 5.68396 -16.9116
LeftUpLeg  -3.31263 4.61662 2.40028
LeftLeg  2.49098 10.9535 -3.8733
LeftFoot  -0.69462 -0.113414 1.28668
LeftToes  -6.09394e-011 -3.18376e-011 -2.71738e-012
167
root  -75.1758 41.7053 -10.1113 -171.925 -87.4341 172.444
RightUpLeg  -3.83975 -6.37378 -2.3596
RightLeg  2.85359 -4.18458 3.88658
RightFoot  0.908471 0.272428 -2.48386
RightToes  -5.8209e-011 0 -3.6325e-017
Spine  6.5737 -0.789492 0.652678
Spine1  -2.14387 -0.385856 -2.35136
HEad  -8.46461 5.16213 0.185137
LeftShoulder1  0.613172 -1.72157 -3.68878
LeftArm  -12.242 8.16351 -1.01999
LeftForeArm  15.9638 0.782634 -3.34575
LeftHand  -0.244104 0.0205437 5.32207
RightShoulder  0.607064 -0.0226778 10.1693
RightArm  -12.2449 1.54905 -5.26539
RightForeArm  -19.7802 -2.39953 7.22749
RightHand  -1.72051 6.1803 -17.4466
LeftUpLeg  -3.40392 4.73601 2.50777
LeftLeg  2.64567 10.8879 -3.90557
LeftFoot  -0.904139 -0.111433 1.27292
LeftToes  -6.09394e-011 -3.18376e-011 -2.71738e-012
168
root  -75.2219 41.7053 -10.0894 -173.809 -87.4646 174.401
RightUpLeg  -3.82593 -6.31883 -2.29484
RightLeg  2.81626 -4.23712 3.87011
RightFoot  0.857925 0.267185 -2.46733
RightToes  -5.8209e-011 0 -3.6325e-017
Spine  6.36437 -0.802176 0.983308
Spine1  -1.92065 -0.3201 -2.73958
HEad  -7.81067 5.01644 0.627522
LeftShoulder1  0.610428 -1.80856 -3.41479
LeftArm  -12.497 8.36064 -0.949517
LeftForeArm  16.1019 0.937058 -3.19629
LeftHand  -0.244104 0.0205437 5.32207
RightShoulder  0.596738 -0.0938063 10.2342
RightArm  -11.2684 1.49586 -5.55087
RightForeArm  -20.2076 -2.46971 7.59228
RightHand  -1.82786 6.76016 -17.652
LeftUpLeg  -3.49532 4.83841 2.59082
LeftLeg  2.83861 10.7697 -3.93275
LeftFoot  -1.087 -0.115604 1.33775
LeftToes  -6.09394e-011 -3.18376e-011 -2.71738e-012
169
root  -75.263 41.7053 -10.0725 -174.549 -87.5703 175.141
RightUpLeg  -3.75235 -6.31239 -2.28879
RightLeg  2.83091 -4.32892 3.85415
RightFoot  0.787041 0.256532 -2.37905
RightToes  -5.8209e-011 0 -3.6325e-017
Spine  6.20829 -0.841801 1.04344
Spine1  -1.62235 -0.347187 -2.77526
HEad  -7.30644 4.85162 0.926085
LeftShoulder1  0.58445 -1.66014 -3.21703
LeftArm  -9.99612 8.8894 -0.523148
LeftForeArm  14.3659 -0.574865 -4.32718
LeftHand  -0.244104 0.0205437 5.32207
RightShoulder  0.584502 -0.148059 10.1436
RightArm  -10.2519 1.50344 -5.60797
RightForeArm  -21.7199 -2.01027 8.07226
RightHand  -1.8012 6.43852 -17.8541
LeftUpLeg  -3.49468 4.87451 2.6138
LeftLeg  2.97176 10.6454 -3.93413
LeftFoot  -1.21264 -0.11857 1.38387
LeftToes  -6.09394e-011 -3.18376e-011 -2.71738e-012
